<?xml version="1.0" standalone="no"?>
<svg xmlns:xlink="http://www.w3.org/1999/xlink" id="wave" style="transform:rotate(0deg); transition: 0.3s" viewBox="0 0 1440 430" version="1.1" xmlns="http://www.w3.org/2000/svg"><defs><linearGradient id="sw-gradient-0" x1="0" x2="0" y1="1" y2="0"><stop stop-color="rgba(243, 106, 62, 1)" offset="0%"/><stop stop-color="rgba(255, 179, 11, 1)" offset="100%"/></linearGradient></defs><path style="transform:translate(0, 0px); opacity:1" fill="url(#sw-gradient-0)" d="M0,172L720,301L1440,129L2160,344L2880,258L3600,172L4320,387L5040,387L5760,301L6480,215L7200,129L7920,172L8640,86L9360,215L10080,172L10800,215L11520,301L12240,387L12960,258L13680,215L14400,387L15120,387L15840,258L16560,172L17280,129L17280,430L16560,430L15840,430L15120,430L14400,430L13680,430L12960,430L12240,430L11520,430L10800,430L10080,430L9360,430L8640,430L7920,430L7200,430L6480,430L5760,430L5040,430L4320,430L3600,430L2880,430L2160,430L1440,430L720,430L0,430Z"/><defs><linearGradient id="sw-gradient-1" x1="0" x2="0" y1="1" y2="0"><stop stop-color="rgba(243, 106, 62, 1)" offset="0%"/><stop stop-color="rgba(255, 179, 11, 1)" offset="100%"/></linearGradient></defs><path style="transform:translate(0, 50px); opacity:0.9" fill="url(#sw-gradient-1)" d="M0,43L720,258L1440,215L2160,387L2880,215L3600,172L4320,301L5040,86L5760,0L6480,129L7200,301L7920,387L8640,258L9360,258L10080,301L10800,129L11520,86L12240,86L12960,172L13680,129L14400,0L15120,301L15840,129L16560,301L17280,387L17280,430L16560,430L15840,430L15120,430L14400,430L13680,430L12960,430L12240,430L11520,430L10800,430L10080,430L9360,430L8640,430L7920,430L7200,430L6480,430L5760,430L5040,430L4320,430L3600,430L2880,430L2160,430L1440,430L720,430L0,430Z"/></svg>