<svg width="24px" height="24px" viewBox="0 0 24 24" fill="none" xmlns="http://www.w3.org/2000/svg">
<path fill-rule="evenodd" clip-rule="evenodd" d="M13.8429 2.67879C16.0153 3.08756 17.8473 4.13364 18.7022 5.08211C18.882 5.28165 18.8721 5.58763 18.6796 5.77506L16.0344 8.35132C15.8719 8.50965 15.6231 8.53865 15.4285 8.42196C13.3899 7.19963 11.6897 7.14808 10.4053 7.58054C9.10095 8.01969 8.16974 8.97627 7.72215 9.85456C6.80519 11.6539 6.91305 14.6022 9.45653 16.2024C11.0501 17.2049 12.6989 17.2012 14.0366 16.6681C15.3938 16.1272 16.3956 15.0576 16.7088 13.9761C16.7857 13.7109 17.063 13.5581 17.3282 13.6349C17.5934 13.7118 17.7462 13.9891 17.6693 14.2543C17.2555 15.6832 15.9974 16.9632 14.4068 17.5971C12.7967 18.2387 10.8096 18.235 8.92403 17.0488C5.83243 15.1038 5.74351 11.5348 6.83118 9.40051C7.38591 8.31198 8.51081 7.16323 10.0862 6.63282C11.602 6.12245 13.4862 6.20058 15.6075 7.37128L17.6125 5.41849C16.8119 4.73761 15.3792 3.98541 13.658 3.66154C11.6699 3.28743 9.3587 3.49659 7.26073 4.99289C4.73262 6.79597 3.70449 9.06153 3.52812 11.229C3.35014 13.4162 4.03926 15.5254 4.9862 16.9681C6.12928 18.7096 9.43068 21.5943 15.0534 20.0687C17.0716 19.5211 18.4815 18.1222 19.3657 16.3758C20.1787 14.7702 20.5349 12.8903 20.4973 11.1802H12.6772V13.7814H15.1844C15.4605 13.7814 15.6844 14.0053 15.6844 14.2814C15.6844 14.5576 15.4605 14.7814 15.1844 14.7814H12.1772C11.901 14.7814 11.6772 14.5576 11.6772 14.2814V10.6802C11.6772 10.4041 11.901 10.1802 12.1772 10.1802H20.9759C21.2394 10.1802 21.4577 10.3847 21.4749 10.6476C21.6047 12.6327 21.2362 14.8952 20.2579 16.8275C19.2761 18.7667 17.6655 20.3961 15.3153 21.0338C9.18513 22.6971 5.47519 19.5355 4.1502 17.5168C3.09474 15.9088 2.33345 13.5807 2.53142 11.1479C2.73099 8.69523 3.90517 6.15784 6.68007 4.17875C9.04657 2.49093 11.6498 2.2661 13.8429 2.67879Z" fill="black"/>
</svg>
