<svg xmlns="http://www.w3.org/2000/svg" xmlns:xlink="http://www.w3.org/1999/xlink" width="514.3793100967703" height="485.2758620193539" version="1.1" preserveAspectRatio="xMidYMid" style=""><rect id="backgroundrect" width="100%" height="100%" x="0" y="0" fill="none" stroke="none" class="" style=""/>
    
<g class="currentLayer" style=""><title>Layer 1</title><g id="svg_1" class="" stroke="#000000" stroke-opacity="1" fill="#ffffff" fill-opacity="1">
        <path d="M120.81042999999998,182.11930885722654 L217.37832499999996,182.11930885722654 L217.37832499999996,189.79465755722657 L129.662487,189.79465755722657 L129.662487,247.56175665722657 L212.147564,247.56175665722657 L212.147564,255.23710465722655 L129.662487,255.23710465722655 L129.662487,318.65972365722655 L218.38424099999997,318.65972365722655 L218.38424099999997,326.33507165722654 L120.81042999999998,326.33507165722654 L120.81042999999998,182.11930885722654 zM226.0292,182.11930885722654 L236.289538,182.11930885722654 L281.756922,245.54192765722655 L328.230222,182.11930885722654 L391.441486,101.55799865722656 L287.591232,252.20736165722656 L341.105941,326.33507165722654 L330.443237,326.33507165722654 L281.756922,258.87279665722656 L232.86942499999998,326.33507165722654 L222.40790399999997,326.33507165722654 L276.324978,252.20736165722656 L226.0292,182.11930885722654 zM344.928421,189.79465745722655 L344.928421,182.11930885722654 L454.975585,182.11930885722654 L454.975585,189.79465755722657 L404.27744,189.79465755722657 L404.27744,326.33507165722654 L395.425382,326.33507165722654 L395.425382,189.79465755722657 L344.928421,189.79465745722655 zM-1.520200439816023e-23,182.11930885722654 L11.065071399999987,182.11930885722654 L163.64592999999996,410.44200565722656 L100.59155799999999,326.33507165722654 L9.254423309999986,193.02638335722656 L8.852057079999986,326.33507165722654 L-1.520200439816023e-23,326.33507165722654 L-1.520200439816023e-23,182.11930885722654 zM454.083705,316.3434676572266 C452.275167,316.3434676572266 450.918762,314.9421786572266 450.918762,313.13128365722656 C450.918762,311.32038665722655 452.275167,309.91909765722653 454.083705,309.91909765722653 C455.913774,309.91909765722653 457.248648,311.32038665722655 457.248648,313.13128365722656 C457.248648,314.9421786572266 455.913774,316.3434676572266 454.083705,316.3434676572266 zM462.781915,307.89261665722654 L467.518563,307.89261665722654 C467.583153,310.45805365722657 469.456284,312.1827176572266 472.212151,312.1827176572266 C475.290972,312.1827176572266 477.03492,310.3287036572266 477.03492,306.8578186572266 L477.03492,284.86836165722656 L481.85769,284.86836165722656 L481.85769,306.87937765722654 C481.85769,313.13128365722656 478.240613,316.73151665722656 472.255212,316.73151665722656 C466.635824,316.73151665722656 462.781915,313.2390746572265 462.781915,307.89261665722654 zM488.166045,307.61236065722653 L492.945754,307.61236065722653 C493.354828,310.56584665722653 496.239878,312.44141765722657 500.395211,312.44141765722657 C504.270652,312.44141765722657 507.11264,310.4364966572266 507.11264,307.67703465722656 C507.11264,305.30562365722653 505.304102,303.8827756572266 501.191828,302.91265165722655 L497.187209,301.9425296572266 C491.56782,300.6274726572266 489.005723,297.91112765722653 489.005723,293.3407706572266 C489.005723,287.8002886572266 493.527071,284.1138216572266 500.30909,284.1138216572266 C506.617445,284.1138216572266 511.224912,287.8002886572266 511.504805,293.03895365722656 L506.811217,293.03895365722656 C506.359083,290.17170165722655 503.861576,288.38236365722656 500.244499,288.38236365722656 C496.43365,288.38236365722656 493.893085,290.2148176572266 493.893085,293.0173966572265 C493.893085,295.23789965722654 495.52938,296.50983865722657 499.577063,297.45840465722654 L503.000368,298.29917665722655 C509.373314,299.78670065722656 512,302.37369365722657 512,307.0518446572265 C512,313.0019336572266 507.392533,316.73151665722656 500.029197,316.73151665722656 C493.139526,316.73151665722656 488.51053,313.17439865722656 488.166045,307.61236065722653 z" fill="#ffffff" fill-rule="nonzero" id="svg_2" stroke="#000000" stroke-opacity="1" fill-opacity="1"/>
    </g></g></svg>